<?xml version="1.0" standalone="no"?>
<!DOCTYPE svg PUBLIC "-//W3C//DTD SVG 20010904//EN"
 "http://www.w3.org/TR/2001/REC-SVG-20010904/DTD/svg10.dtd">
<svg version="1.0" xmlns="http://www.w3.org/2000/svg"
 width="512.000000pt" height="512.000000pt" viewBox="0 0 512.000000 512.000000"
 preserveAspectRatio="xMidYMid meet">
<metadata>
Created by potrace 1.14, written by Peter Selinger 2001-2017
</metadata>
<g transform="translate(0.000000,512.000000) scale(0.100000,-0.100000)"
fill="#000000" stroke="none">
<path d="M4617 5034 c-1 -1 -40 -5 -87 -8 -47 -4 -103 -9 -125 -11 -22 -3 -69
-7 -105 -10 -36 -3 -85 -7 -110 -9 -138 -13 -189 -18 -230 -21 -25 -2 -79 -7
-120 -11 -41 -3 -83 -6 -92 -6 -12 1 -18 -7 -19 -21 0 -12 -1 -658 -1 -1434
-1 -777 -3 -1413 -5 -1413 -2 0 -56 55 -121 121 -64 67 -157 163 -207 214 -49
50 -189 194 -310 319 -121 126 -265 275 -320 331 -55 57 -201 208 -325 336
-124 128 -259 267 -300 309 -41 42 -174 179 -295 304 -205 213 -301 312 -531
548 -97 99 -127 124 -189 155 -133 67 -344 42 -467 -55 -69 -54 -188 -203
-188 -235 0 -4 -7 -21 -15 -37 -9 -17 -13 -30 -9 -30 4 0 2 -6 -4 -12 -6 -7
-11 -17 -11 -23 0 -5 -4 -30 -7 -55 -12 -75 -10 -4210 1 -4211 21 -3 139 5
243 16 45 5 83 8 232 20 36 3 83 8 105 10 22 3 67 7 100 9 88 6 215 18 234 21
9 2 23 4 32 4 14 1 16 131 15 1431 -1 787 1 1430 4 1430 5 0 231 -231 595
-607 66 -69 172 -178 235 -243 63 -65 195 -201 292 -302 97 -100 239 -247 315
-325 76 -78 221 -228 323 -334 102 -106 225 -233 274 -283 48 -50 172 -178
275 -284 102 -107 204 -207 227 -222 101 -71 256 -92 382 -52 64 20 172 80
172 94 0 4 6 8 13 8 18 1 97 101 133 168 37 69 48 101 61 177 4 22 7 983 8
2135 l0 2095 -38 0 c-21 1 -39 0 -40 -1z"/>
</g>
</svg>
